<svg width="260" height="260" viewBox="0 0 260 260" fill="none" xmlns="http://www.w3.org/2000/svg">
<path d="M153.724 118.549C150.481 118.549 147.238 117.302 144.768 114.832C139.829 109.892 139.829 101.859 144.768 96.9198L177.499 64.189C182.438 59.2495 190.471 59.2495 195.411 64.189C200.351 69.1286 200.351 77.1616 195.411 82.1012L162.68 114.832C160.21 117.302 156.967 118.549 153.724 118.549Z" fill="#38FF9C"/>
<path d="M130 260C58.3266 260 0 201.673 0 130C0 58.3266 58.3266 0 130 0C201.673 0 260 58.3266 260 130C260 201.673 201.673 260 130 260ZM130 25.3214C72.2721 25.3214 25.3214 72.2721 25.3214 130C25.3214 187.728 72.2721 234.679 130 234.679C187.728 234.679 234.679 187.728 234.679 130C234.679 72.2721 187.703 25.3214 130 25.3214Z" fill="#38FF9C"/>
<path d="M73.5201 198.505C70.277 198.505 67.0338 197.258 64.564 194.788C59.6245 189.848 59.6245 181.815 64.564 176.876L97.2948 144.145C102.234 139.206 110.267 139.206 115.207 144.145C120.146 149.085 120.146 157.118 115.207 162.057L82.4762 194.788C80.0064 197.258 76.7632 198.505 73.5201 198.505Z" fill="#38FF9C"/>
<path d="M127.156 84.4216C104.529 86.0432 86.2176 104.255 84.6958 126.907C84.621 128.129 84.0721 129.277 83.199 130.15L64.8129 148.561C63.7651 149.609 61.9689 149.135 61.5947 147.713C60.0979 142 59.1748 135.888 59.1748 129.801C59.1748 90.6584 91.0324 58.8008 130.175 58.8008C136.561 58.8008 142.748 59.649 148.636 61.2207C149.833 61.545 150.207 63.0418 149.359 63.915L130.349 82.9248C129.501 83.773 128.378 84.2969 127.181 84.3966L127.156 84.4216Z" fill="#38FF9C"/>
<path d="M176.601 129.352L195.611 110.342C196.484 109.469 197.981 109.868 198.305 111.065C199.901 116.953 200.725 123.14 200.725 129.526C200.725 168.668 168.867 200.526 129.725 200.526C123.638 200.526 117.526 199.603 111.813 198.106C110.391 197.732 109.917 195.936 110.965 194.888L129.376 176.502C130.249 175.629 131.396 175.105 132.619 175.005C155.271 173.458 173.457 155.172 175.104 132.545C175.179 131.347 175.728 130.225 176.576 129.377L176.601 129.352Z" fill="#38FF9C"/>
</svg>
