<svg width="1608" height="376" viewBox="0 0 1608 376" fill="none" xmlns="http://www.w3.org/2000/svg">
<path d="M187.61 0.439453C84.0198 0.439453 0.0498047 84.4194 0.0498047 187.999C0.0498047 291.579 84.0298 375.559 187.61 375.559C291.19 375.559 375.17 291.579 375.17 187.999C375.17 84.4194 291.19 0.439453 187.61 0.439453ZM187.61 342.359C102.36 342.359 33.2498 273.249 33.2498 187.999C33.2498 102.749 102.36 33.6395 187.61 33.6395C272.86 33.6395 341.97 102.749 341.97 187.999C341.97 273.249 272.86 342.359 187.61 342.359Z" fill="url(#paint0_linear_728_19)"/>
<path d="M186.579 84.8594C129.829 85.4194 83.8295 132.439 84.4695 189.189C84.6295 203.699 87.7895 217.489 93.3695 229.979C94.1995 231.849 96.6795 232.269 98.0995 230.799L120.839 207.329C122.319 205.799 122.929 203.639 122.499 201.549C121.599 197.179 121.129 192.659 121.129 188.019C121.129 151.289 150.899 121.519 187.619 121.519C191.379 121.519 195.06 121.829 198.64 122.429C201.04 122.829 203.489 122.069 205.179 120.319L227.799 96.9894C229.119 95.6194 228.659 93.3394 226.899 92.6194C214.489 87.5094 200.869 84.7394 186.579 84.8794V84.8594Z" fill="url(#paint1_linear_728_19)"/>
<path d="M188.63 291.269C245.38 290.709 291.38 243.689 290.74 186.939C290.58 172.429 287.42 158.639 281.84 146.149C281.01 144.279 278.53 143.859 277.11 145.329L254.37 168.799C252.89 170.329 252.28 172.489 252.71 174.579C253.61 178.949 254.08 183.469 254.08 188.109C254.08 224.839 224.31 254.609 187.59 254.609C183.83 254.609 180.15 254.299 176.57 253.699C174.17 253.299 171.72 254.059 170.03 255.809L147.41 279.139C146.09 280.509 146.55 282.789 148.31 283.509C160.72 288.619 174.34 291.389 188.63 291.249V291.269Z" fill="url(#paint2_linear_728_19)"/>
<path d="M134.475 208.389L91.1572 251.706C82.3665 260.497 82.3665 274.749 91.1572 283.54C99.9479 292.331 114.2 292.331 122.991 283.54L166.308 240.223C175.099 231.432 175.099 217.179 166.308 208.389C157.518 199.598 143.265 199.598 134.475 208.389Z" fill="url(#paint3_linear_728_19)"/>
<path d="M251.288 91.8477L207.971 135.165C199.18 143.956 199.18 158.208 207.971 166.999C216.761 175.79 231.014 175.79 239.805 166.999L283.122 123.682C291.913 114.891 291.913 100.638 283.122 91.8477C274.331 83.057 260.079 83.057 251.288 91.8477Z" fill="url(#paint4_linear_728_19)"/>
<path d="M494.91 285.911V93.6914H619.93V122.881H529.73V175.061H613.45V204.251H529.73V256.721H620.68V285.911H494.91Z" fill="#171717"/>
<path d="M725.981 141.741V168.021H643.101V141.741H725.981ZM663.571 107.201H697.551V242.541C697.551 247.111 698.251 250.601 699.661 253.011C701.071 255.421 702.931 257.061 705.241 257.941C707.551 258.821 710.121 259.251 712.941 259.251C715.071 259.251 717.021 259.091 718.811 258.781C720.591 258.471 721.951 258.191 722.891 257.941L728.621 284.501C726.801 285.131 724.221 285.811 720.881 286.561C717.531 287.311 713.451 287.751 708.631 287.871C700.121 288.121 692.451 286.821 685.631 283.971C678.811 281.121 673.411 276.701 669.441 270.691C665.471 264.681 663.511 257.171 663.571 248.161V107.191V107.201Z" fill="#171717"/>
<path d="M788.39 201.43V285.9H754.41V93.6797H787.64V166.23H789.33C792.71 158.1 797.95 151.67 805.05 146.94C812.15 142.22 821.21 139.85 832.22 139.85C842.23 139.85 850.96 141.95 858.41 146.14C865.86 150.33 871.63 156.46 875.73 164.54C879.83 172.61 881.88 182.47 881.88 194.11V285.9H847.9V199.36C847.9 189.66 845.41 182.11 840.44 176.69C835.47 171.28 828.5 168.57 819.56 168.57C813.55 168.57 808.19 169.87 803.46 172.47C798.73 175.07 795.04 178.81 792.38 183.69C789.72 188.57 788.39 194.48 788.39 201.43Z" fill="#171717"/>
<path d="M980.24 288.721C965.79 288.721 953.32 285.701 942.84 279.661C932.36 273.621 924.3 265.051 918.67 253.941C913.04 242.831 910.22 229.741 910.22 214.661C910.22 199.581 913.05 186.801 918.71 175.571C924.37 164.341 932.3 155.581 942.5 149.291C952.7 143.001 964.68 139.861 978.45 139.861C987.33 139.861 995.73 141.281 1003.65 144.131C1011.56 146.981 1018.57 151.371 1024.67 157.321C1030.77 163.271 1035.57 170.821 1039.08 179.991C1042.58 189.161 1044.34 200.061 1044.34 212.701V223.121H926.17V200.221H1011.77C1011.71 193.711 1010.3 187.911 1007.55 182.811C1004.8 177.711 1000.96 173.691 996.05 170.751C991.14 167.811 985.43 166.341 978.92 166.341C971.97 166.341 965.87 168.011 960.62 171.361C955.36 174.711 951.28 179.091 948.37 184.501C945.46 189.911 943.97 195.841 943.91 202.291V222.281C943.91 230.671 945.44 237.851 948.51 243.821C951.58 249.801 955.86 254.361 961.37 257.521C966.88 260.681 973.32 262.261 980.7 262.261C985.64 262.261 990.12 261.561 994.12 260.151C998.12 258.741 1001.6 256.661 1004.54 253.911C1007.48 251.161 1009.7 247.751 1011.2 243.681L1042.92 247.251C1040.92 255.641 1037.12 262.941 1031.52 269.171C1025.92 275.401 1018.77 280.211 1010.07 283.621C1001.37 287.031 991.42 288.741 980.22 288.741L980.24 288.721Z" fill="#171717"/>
<path d="M1073.06 285.91V141.74H1106V165.77H1107.5C1110.13 157.45 1114.65 151.02 1121.06 146.48C1127.47 141.94 1134.81 139.68 1143.07 139.68C1144.95 139.68 1147.06 139.76 1149.41 139.91C1151.76 140.07 1153.71 140.3 1155.28 140.61V171.86C1153.84 171.36 1151.57 170.91 1148.48 170.5C1145.38 170.09 1142.39 169.89 1139.52 169.89C1133.33 169.89 1127.77 171.22 1122.86 173.88C1117.95 176.54 1114.08 180.22 1111.27 184.91C1108.45 189.6 1107.05 195.02 1107.05 201.15V285.9H1073.07L1073.06 285.91Z" fill="#171717"/>
<path d="M1211.87 93.6797V285.9H1177.89V93.6797H1211.87Z" fill="#171717"/>
<path d="M1263.87 121.281C1258.49 121.281 1253.86 119.471 1249.98 115.841C1246.1 112.211 1244.16 107.861 1244.16 102.791C1244.16 97.7206 1246.1 93.3906 1249.98 89.7906C1253.86 86.1906 1258.49 84.3906 1263.87 84.3906C1269.25 84.3906 1273.96 86.2106 1277.81 89.8306C1281.66 93.4606 1283.58 97.8106 1283.58 102.881C1283.58 107.951 1281.66 112.281 1277.81 115.881C1273.96 119.481 1269.32 121.281 1263.87 121.281ZM1246.79 285.911V141.741H1280.77V285.911H1246.79Z" fill="#171717"/>
<path d="M1349.66 201.431V285.901H1315.68V141.731H1348.15V166.231H1349.84C1353.16 158.161 1358.46 151.751 1365.75 146.991C1373.04 142.241 1382.07 139.861 1392.83 139.861C1402.78 139.861 1411.46 141.991 1418.88 146.241C1426.29 150.501 1432.05 156.661 1436.15 164.731C1440.25 172.801 1442.27 182.601 1442.2 194.111V285.901H1408.22V199.361C1408.22 189.721 1405.73 182.181 1400.76 176.741C1395.79 171.301 1388.92 168.571 1380.16 168.571C1374.21 168.571 1368.94 169.871 1364.34 172.471C1359.74 175.071 1356.14 178.811 1353.55 183.691C1350.95 188.571 1349.65 194.481 1349.65 201.431H1349.66Z" fill="#171717"/>
<path d="M1476.83 285.911V93.6914H1510.81V285.911H1476.83ZM1507.81 240.671L1507.72 199.651H1513.16L1564.97 141.741H1604.67L1540.94 212.701H1533.9L1507.81 240.671ZM1567.31 285.911L1520.38 220.301L1543.28 196.371L1607.95 285.911H1567.31Z" fill="#171717"/>
<defs>
<linearGradient id="paint0_linear_728_19" x1="0.0498047" y1="187.999" x2="523.7" y2="187.999" gradientUnits="userSpaceOnUse">
<stop stop-color="#38FF9C"/>
<stop offset="1" stop-color="#171717"/>
</linearGradient>
<linearGradient id="paint1_linear_728_19" x1="84.4595" y1="158.259" x2="281.459" y2="158.259" gradientUnits="userSpaceOnUse">
<stop stop-color="#38FF9C"/>
<stop offset="1" stop-color="#171717"/>
</linearGradient>
<linearGradient id="paint2_linear_728_19" x1="146.65" y1="217.869" x2="342.58" y2="217.869" gradientUnits="userSpaceOnUse">
<stop stop-color="#38FF9C"/>
<stop offset="1" stop-color="#171717"/>
</linearGradient>
<linearGradient id="paint3_linear_728_19" x1="84.5622" y1="245.97" x2="233.142" y2="245.97" gradientUnits="userSpaceOnUse">
<stop stop-color="#38FF9C"/>
<stop offset="1" stop-color="#171717"/>
</linearGradient>
<linearGradient id="paint4_linear_728_19" x1="201.372" y1="129.424" x2="338.462" y2="129.424" gradientUnits="userSpaceOnUse">
<stop stop-color="#38FF9C"/>
<stop offset="1" stop-color="#171717"/>
</linearGradient>
</defs>
</svg>
