<svg width="179" height="28" viewBox="0 0 179 28" fill="none" xmlns="http://www.w3.org/2000/svg">
<path d="M11.4259 13.7543C11.4259 11.6935 10.4092 10.5669 8.32089 10.5669C7.74386 10.5669 7.24927 10.6493 6.8371 10.8142C6.06773 11.1714 5.54566 11.6935 5.29836 12.5178C5.16097 12.9025 5.10601 13.3147 5.10601 13.7543C5.10601 14.194 5.16097 14.6061 5.29836 14.9908C5.51818 15.7877 6.09521 16.3647 6.8371 16.6669C7.24927 16.8593 7.74386 16.9417 8.32089 16.9417C10.4092 16.9417 11.4259 15.8151 11.4259 13.7543ZM11.4259 8.2588V1.3894H15.5475V13.7543C15.5475 18.1233 12.4425 20.7611 8.29342 20.7611C4.06187 20.7611 0.984375 18.0133 0.984375 13.8093C0.984375 9.93493 3.84205 6.74753 7.74386 6.74753C9.20018 6.74753 10.4641 7.15969 11.4259 8.2588ZM22.0047 12.1057C22.4169 12.243 22.884 12.353 23.3786 12.4079C23.8732 12.4903 24.3403 12.5178 24.78 12.5178C25.3295 12.5178 26.7309 12.4079 26.7309 11.6111C26.7309 10.7593 25.5219 10.7318 24.9174 10.7318C23.7083 10.7318 22.6642 11.0066 22.0047 12.1057ZM29.7809 16.3372V20.1841C28.2422 20.5413 26.7034 20.7886 25.1097 20.7886C20.7408 20.7886 17.4984 18.2332 17.4984 13.8093C17.4984 9.44033 20.6309 6.74753 24.78 6.74753C27.6102 6.74753 30.88 8.09393 30.88 11.3088C30.88 14.4962 27.4178 15.6777 24.7525 15.6777C23.7358 15.6777 22.7192 15.403 21.7849 15.0183C22.3345 16.557 23.9831 16.8043 25.412 16.8043C26.1539 16.8043 26.8957 16.7769 27.6376 16.6669C28.3246 16.612 29.1214 16.5296 29.7809 16.3372ZM41.7337 12.3804C41.7337 10.9241 40.3323 10.5669 39.1233 10.5669C37.9143 10.5669 36.5129 10.9241 36.5129 12.3804C36.5129 13.8367 37.9143 14.194 39.1233 14.194C40.3323 14.194 41.7337 13.8367 41.7337 12.3804ZM40.6346 23.2341C40.6346 22.2998 39.9751 21.9426 39.1233 21.9426C38.2715 21.9426 37.612 22.2998 37.612 23.2341C37.612 24.1683 38.2715 24.5255 39.1233 24.5255C39.9751 24.5255 40.6346 24.1683 40.6346 23.2341ZM44.344 23.2341C44.344 26.1467 41.6237 27.3557 39.1233 27.3557C36.5953 27.3557 33.9025 26.0368 33.9025 23.2341C33.9025 21.1733 35.4138 19.7719 37.3372 19.3323V17.8485C36.5404 17.7111 35.8534 17.4638 35.2489 17.1066C33.4629 16.1723 32.3913 14.3863 32.3913 12.3804C32.3913 8.58853 35.771 6.74753 39.1233 6.74753C40.6071 6.74753 41.871 7.0223 42.9152 7.59933C43.9868 7.07726 45.031 6.88492 46.2125 6.88492H47.2841V10.2097H46.6796H46.0751C45.8828 10.2372 45.663 10.2647 45.4431 10.3196C45.7179 10.9516 45.8553 11.6385 45.8553 12.3804C45.8553 15.3205 43.7395 17.244 41.0467 17.821V19.3597C42.8877 19.8818 44.344 21.2282 44.344 23.2341ZM52.1477 12.1057C52.5598 12.243 53.0269 12.353 53.5215 12.4079C54.0161 12.4903 54.4833 12.5178 54.9229 12.5178C55.4725 12.5178 56.8738 12.4079 56.8738 11.6111C56.8738 10.7593 55.6648 10.7318 55.0603 10.7318C53.8513 10.7318 52.8071 11.0066 52.1477 12.1057ZM59.9238 16.3372V20.1841C58.3851 20.5413 56.8463 20.7886 55.2526 20.7886C50.8837 20.7886 47.6413 18.2332 47.6413 13.8093C47.6413 9.44033 50.7738 6.74753 54.9229 6.74753C57.7531 6.74753 61.0229 8.09393 61.0229 11.3088C61.0229 14.4962 57.5608 15.6777 54.8954 15.6777C53.8788 15.6777 52.8621 15.403 51.9278 15.0183C52.4774 16.557 54.1261 16.8043 55.5549 16.8043C56.2968 16.8043 57.0387 16.7769 57.7806 16.6669C58.4675 16.612 59.2644 16.5296 59.9238 16.3372ZM77.0698 13.7543V20.6237H72.9482V13.7543C72.9482 11.8584 72.0689 10.5669 70.0631 10.5669C68.0847 10.5669 67.1779 11.8858 67.1779 13.7543V20.6237H63.0563V13.7543C63.0563 9.52277 65.9689 6.74753 70.0631 6.74753C74.3221 6.74753 77.0698 9.66015 77.0698 13.7543ZM83.3073 12.1057C83.7194 12.243 84.1865 12.353 84.6811 12.4079C85.1757 12.4903 85.6429 12.5178 86.0825 12.5178C86.6321 12.5178 88.0334 12.4079 88.0334 11.6111C88.0334 10.7593 86.8244 10.7318 86.2199 10.7318C85.0109 10.7318 83.9667 11.0066 83.3073 12.1057ZM91.0834 16.3372V20.1841C89.5447 20.5413 88.0059 20.7886 86.4122 20.7886C82.0433 20.7886 78.8009 18.2332 78.8009 13.8093C78.8009 9.44033 81.9334 6.74753 86.0825 6.74753C88.9127 6.74753 92.1825 8.09393 92.1825 11.3088C92.1825 14.4962 88.7203 15.6777 86.055 15.6777C85.0384 15.6777 84.0217 15.403 83.0874 15.0183C83.637 16.557 85.2856 16.8043 86.7145 16.8043C87.4564 16.8043 88.1983 16.7769 88.9402 16.6669C89.6271 16.612 90.424 16.5296 91.0834 16.3372ZM98.3375 13.7543V20.6237H94.2159V13.7818C94.2159 9.22051 97.5681 6.74753 101.8 6.74753C101.937 6.74753 102.129 6.74753 102.322 6.77501C102.514 6.80248 102.734 6.85744 102.926 6.88492V10.8692C102.789 10.8417 102.624 10.8142 102.432 10.7867C102.239 10.7593 102.074 10.7318 101.937 10.7318C101.25 10.7318 100.701 10.8142 100.233 10.9516C99.4641 11.2264 98.7771 11.7485 98.5298 12.5728C98.3925 12.93 98.3375 13.3422 98.3375 13.7543ZM114.357 13.7543C114.247 11.7485 113.34 10.5669 111.252 10.5669C110.675 10.5669 110.18 10.6493 109.768 10.8142C108.504 11.3912 108.037 12.4629 108.037 13.7818C108.037 14.2214 108.092 14.6336 108.229 14.9908C108.642 16.4196 109.878 16.9417 111.252 16.9417C113.34 16.9417 114.357 15.8151 114.357 13.7543ZM119.578 20.6237H115.456C115.181 19.9368 114.934 19.2498 114.769 18.5354C113.835 20.0742 112.406 20.7611 110.647 20.7611C106.718 20.7611 103.915 17.4638 103.915 13.6994C103.915 9.3579 107.158 6.74753 111.252 6.74753C115.621 6.74753 118.369 9.55024 118.479 13.7543C118.506 14.1115 118.506 14.5237 118.506 15.0183C118.506 16.9417 118.808 18.8651 119.578 20.6237ZM128.645 7.35204V11.1714H124.798V13.7543C124.798 15.8701 126.2 16.9417 128.233 16.9417C128.48 16.9417 128.7 16.9142 128.893 16.8868C129.085 16.8593 129.25 16.8318 129.442 16.8043V20.6237C129.195 20.6512 129.003 20.7061 128.865 20.7336C128.7 20.7611 128.425 20.7611 128.068 20.7611C123.919 20.7611 120.677 17.9309 120.677 13.7543V3.5876H124.798V7.35204H128.645ZM130.926 6.88492H135.048V20.6237H130.926V6.88492ZM132.987 5.59347C131.585 5.59347 130.596 4.60428 130.596 3.20292C130.596 1.77408 131.585 0.839844 132.987 0.839844C134.416 0.839844 135.35 1.77408 135.35 3.20292C135.35 4.65923 134.443 5.59347 132.987 5.59347ZM151.809 6.88492L146.176 20.6237H142.054L136.421 6.88492H140.516C141.12 8.45114 141.725 9.98988 142.329 11.5561C142.906 13.1223 143.511 14.6611 144.115 16.2273C144.72 14.6611 145.324 13.1223 145.929 11.5561C146.506 9.98988 147.11 8.45114 147.715 6.88492H151.809ZM156.123 12.1057C156.535 12.243 157.002 12.353 157.497 12.4079C157.991 12.4903 158.458 12.5178 158.898 12.5178C159.448 12.5178 160.849 12.4079 160.849 11.6111C160.849 10.7593 159.64 10.7318 159.036 10.7318C157.827 10.7318 156.782 11.0066 156.123 12.1057ZM163.899 16.3372V20.1841C162.36 20.5413 160.822 20.7886 159.228 20.7886C154.859 20.7886 151.617 18.2332 151.617 13.8093C151.617 9.44033 154.749 6.74753 158.898 6.74753C161.728 6.74753 164.998 8.09393 164.998 11.3088C164.998 14.4962 161.536 15.6777 158.871 15.6777C157.854 15.6777 156.837 15.403 155.903 15.0183C156.453 16.557 158.101 16.8043 159.53 16.8043C160.272 16.8043 161.014 16.7769 161.756 16.6669C162.443 16.612 163.24 16.5296 163.899 16.3372ZM166.4 20.1841V16.3372C168.213 16.8868 170.494 16.9967 172.362 16.9967C173.104 16.9967 173.681 16.9692 174.093 16.8868C174.478 16.8318 174.67 16.6944 174.67 16.5021C174.67 16.4196 174.643 16.3647 174.588 16.2823C174.313 16.0075 173.709 15.8701 173.351 15.7877C172.994 15.7052 172.527 15.5953 171.95 15.4854C171.483 15.403 170.933 15.2931 170.301 15.1557C168.158 14.6886 166.509 13.4795 166.509 11.1714C166.509 7.7642 169.834 6.74753 172.637 6.74753C174.396 6.74753 176.154 6.99483 177.885 7.35204V11.2264C176.154 10.7043 174.203 10.5669 172.39 10.5669C171.675 10.5669 171.181 10.5944 170.878 10.6768C170.576 10.7593 170.411 10.8966 170.411 11.0615C170.411 11.3088 170.659 11.4737 171.126 11.5561C171.593 11.666 172.252 11.8034 173.049 11.9408C173.764 12.0782 174.45 12.2156 175.11 12.3804C177.143 12.9025 178.6 14.0016 178.6 16.1998C178.6 19.8818 174.89 20.7886 171.923 20.7886C170.054 20.7886 168.213 20.5413 166.4 20.1841Z" fill="#111111"/>
</svg>
